<?xml version="1.0" encoding="utf-8"?>
<!-- Generator: Adobe Illustrator 19.0.0, SVG Export Plug-In . SVG Version: 6.00 Build 0)  -->
<svg version="1.1" id="Layer_2" xmlns="http://www.w3.org/2000/svg" xmlns:xlink="http://www.w3.org/1999/xlink" x="0px" y="0px"
	 viewBox="-304 285 183 44" style="enable-background:new -304 285 183 44;" xml:space="preserve">
<style type="text/css">
	.st0{fill:#EC5B2F;}
	.st1{fill:#000227;}
	.st2{fill:#FFFFFF;}
</style>
<title>logo</title>
<g id="XMLID_9_">
	<path id="XMLID_33_" class="st0" d="M-264.7,285h-34.7c-2.5,0-4.5,2-4.5,4.5v18.8c0.3-2,2-3.5,4.1-3.5h12.4c2.3,0,4.2,1.9,4.2,4.2
		v15.5c0,2.3-1.9,4.2-4.2,4.2h22.7c2.5,0,4.5-2,4.5-4.5v-34.7C-260.3,287-262.3,285-264.7,285z M-285.1,293.4l-0.6,8.1
		c0,0.6-0.6,1.1-1.2,1.1h-1.3c-0.6,0-1.1-0.5-1.2-1.1l-0.6-8.1c-0.1-0.7,0.5-1.3,1.2-1.3h2.5C-285.6,292.1-285.1,292.7-285.1,293.4z
		 M-280.9,305.5l-0.9-0.9c-0.4-0.4-0.5-1.1-0.1-1.6l5.3-6.2c0.5-0.5,1.3-0.6,1.8-0.1l1.8,1.8c0.5,0.5,0.5,1.3-0.1,1.7l-6.1,5.3
		C-279.8,305.9-280.5,305.9-280.9,305.5z M-269.4,312.3c0,0.7-0.6,1.2-1.3,1.2l-8.1-0.6c-0.6,0-1.1-0.6-1.1-1.2v-1.3
		c0-0.6,0.5-1.1,1.1-1.2l8.1-0.6c0.7-0.1,1.3,0.5,1.3,1.2V312.3z"/>
	<path id="XMLID_67_" class="st1" d="M-303.9,324.2v-15.9c0,0.2-0.1,0.5-0.1,0.7v15.5c0,2.3,1.9,4.2,4.2,4.2h0.4
		C-301.9,328.6-303.9,326.6-303.9,324.2z"/>
	<path id="XMLID_70_" class="st1" d="M-283.3,324.5V309c0-2.3-1.9-4.2-4.2-4.2h-12.4c-2.1,0-3.8,1.5-4.1,3.5v15.9
		c0,2.5,2,4.5,4.5,4.5h12C-285.1,328.6-283.3,326.8-283.3,324.5z M-287.1,311.4c0,0.6-0.4,1-1,1h-1.9c-0.6,0-1-0.4-1-1v-1.9
		c0-0.6,0.4-1,1-1h1.9c0.6,0,1,0.4,1,1V311.4z"/>
	<path id="XMLID_71_" class="st2" d="M-288.1,308.5h-1.9c-0.6,0-1,0.4-1,1v1.9c0,0.6,0.4,1,1,1h1.9c0.6,0,1-0.4,1-1v-1.9
		C-287.1,308.9-287.6,308.5-288.1,308.5z"/>
	<path id="XMLID_74_" class="st2" d="M-286.3,292.1h-2.5c-0.7,0-1.2,0.6-1.2,1.3l0.6,8.1c0,0.6,0.6,1.1,1.2,1.1h1.3
		c0.6,0,1.1-0.5,1.2-1.1l0.6-8.1C-285.1,292.7-285.6,292.1-286.3,292.1z"/>
	<path id="XMLID_75_" class="st2" d="M-273.2,300.2c0.5-0.5,0.6-1.3,0.1-1.7l-1.8-1.8c-0.5-0.5-1.3-0.5-1.8,0.1l-5.3,6.2
		c-0.4,0.5-0.4,1.2,0.1,1.6l0.9,0.9c0.4,0.4,1.2,0.5,1.6,0.1L-273.2,300.2z"/>
	<path id="XMLID_78_" class="st2" d="M-270.7,308.6l-8.1,0.6c-0.6,0-1.1,0.6-1.1,1.2v1.3c0,0.6,0.5,1.1,1.1,1.2l8.1,0.6
		c0.7,0,1.3-0.5,1.3-1.2v-2.5C-269.4,309.1-270,308.5-270.7,308.6z"/>
</g>
<g>
	<g>
		<path class="st1" d="M-254.8,294.8c2.1-2.1,4.7-3.2,7.9-3.2c4.3,0,7.4,1.4,9.4,4.3c1.1,1.6,1.7,3.2,1.8,4.8h-5.4
			c-0.3-1.2-0.8-2.2-1.3-2.8c-1-1.1-2.4-1.7-4.3-1.7c-1.9,0-3.4,0.8-4.5,2.4c-1.1,1.6-1.7,3.8-1.7,6.7c0,2.9,0.6,5,1.7,6.5
			c1.2,1.4,2.6,2.2,4.4,2.2c1.8,0,3.2-0.6,4.2-1.8c0.5-0.7,1-1.7,1.3-3h5.3c-0.5,2.8-1.6,5.1-3.5,6.8c-1.9,1.8-4.3,2.6-7.3,2.6
			c-3.7,0-6.5-1.2-8.6-3.6c-2.1-2.4-3.1-5.7-3.1-9.8C-258.4,300.7-257.2,297.2-254.8,294.8z"/>
		<path class="st1" d="M-226.7,296.5h-5v-4.6h5V296.5z M-231.8,298.8h5v19h-5V298.8z"/>
		<path class="st1" d="M-223.9,302.5V299h2.7v-5.3h4.9v5.3h3.1v3.5h-3.1v10.1c0,0.8,0.1,1.3,0.3,1.5c0.2,0.2,0.8,0.3,1.8,0.3
			c0.2,0,0.3,0,0.5,0s0.3,0,0.5,0v3.7l-2.4,0.1c-2.4,0.1-4-0.3-4.8-1.2c-0.6-0.6-0.8-1.4-0.8-2.6v-11.7H-223.9z"/>
		<path class="st1" d="M-204.9,296.5h-5v-4.6h5V296.5z M-210,298.8h5v19h-5V298.8z"/>
		<path class="st1" d="M-192.3,292.1h6.1l9.1,25.7h-5.8l-1.7-5.3h-9.5l-1.7,5.3h-5.6L-192.3,292.1z M-192.7,308.1h6.6l-3.2-10.1
			L-192.7,308.1z"/>
		<path class="st1" d="M-169.2,317.8h-5v-25.7h5V317.8z"/>
		<path class="st1" d="M-152,299.2c1.3,0.6,2.4,1.5,3.3,2.8c0.8,1.1,1.3,2.4,1.5,3.9c0.1,0.9,0.2,2.1,0.2,3.8h-13.9
			c0.1,1.9,0.7,3.2,2,4c0.8,0.5,1.7,0.7,2.7,0.7c1.1,0,2.1-0.3,2.8-0.9c0.4-0.3,0.7-0.8,1-1.3h5.1c-0.1,1.1-0.7,2.3-1.8,3.4
			c-1.7,1.8-4.1,2.8-7.2,2.8c-2.5,0-4.8-0.8-6.7-2.3c-1.9-1.6-2.9-4.1-2.9-7.6c0-3.3,0.9-5.8,2.6-7.6c1.7-1.8,4-2.6,6.8-2.6
			C-154.8,298.3-153.3,298.6-152,299.2z M-159.4,303.5c-0.7,0.7-1.1,1.7-1.3,2.9h8.6c-0.1-1.3-0.5-2.3-1.3-3c-0.8-0.7-1.8-1-2.9-1
			C-157.7,302.4-158.7,302.7-159.4,303.5z"/>
		<path class="st1" d="M-133.9,298.3c0.1,0,0.2,0,0.4,0v5.1c-0.3,0-0.6-0.1-0.8-0.1c-0.2,0-0.4,0-0.6,0c-2,0-3.3,0.7-4,2
			c-0.4,0.7-0.6,1.9-0.6,3.4v9.1h-5v-19h4.7v3.3c0.8-1.3,1.4-2.1,2-2.6c0.9-0.8,2.1-1.2,3.6-1.2C-134.1,298.3-134,298.3-133.9,298.3
			z"/>
		<path class="st1" d="M-132.5,302.5V299h2.7v-5.3h4.9v5.3h3.1v3.5h-3.1v10.1c0,0.8,0.1,1.3,0.3,1.5c0.2,0.2,0.8,0.3,1.8,0.3
			c0.2,0,0.3,0,0.5,0s0.3,0,0.5,0v3.7l-2.4,0.1c-2.3,0.1-4-0.3-4.8-1.2c-0.6-0.6-0.8-1.4-0.8-2.6v-11.7H-132.5z"/>
	</g>
</g>
</svg>
